<svg width="240" height="59" viewBox="0 0 240 59" fill="none" xmlns="http://www.w3.org/2000/svg">
<g id="logo" clip-path="url(#clip0_1_368)">
<g id="SvgjsG1065">
<g id="&#208;&#161;&#208;&#187;&#208;&#190;&#208;&#185;_2_1_">
<g id="&#208;&#161;&#208;&#187;&#208;&#190;&#208;&#185;_1-2">
<path id="Vector" d="M57.5957 0H0V58.2249H240V0H57.5957ZM236.197 54.3798H57.5957V3.89997H236.142V54.3798H236.197Z" fill="#1078D7"/>
</g>
</g>
</g>
<g id="SvgjsG1066">
<path id="Vector_2" fill-rule="evenodd" clip-rule="evenodd" d="M29.2088 7.69286C28.7098 10.3289 24.8092 17.0348 19.7747 23.9719C14.6041 31.094 13.6516 37.1061 16.8266 42.4708C19.0944 46.3093 23.7207 49.3616 28.347 50.0554C29.8891 50.2866 30.2973 50.2403 31.9755 49.8241C37.9171 48.298 42.5888 43.8582 43.7227 38.7248C44.4484 35.4875 43.7227 31.6027 41.8631 28.0879C41.4095 27.2554 39.8674 24.8506 38.3707 22.7695C36.8739 20.6421 35.0143 17.821 34.1979 16.4798C32.429 13.6125 30.0705 8.84904 29.8437 7.78535C29.6623 6.81416 29.3902 6.76791 29.2088 7.69286ZM19.9108 25.2206C17.8244 28.0879 16.3276 31.9264 16.0101 34.8863C15.5566 39.696 18.4594 44.7369 23.1764 47.4655L24.0835 47.9742L22.9496 46.4943C21.6343 44.7832 20.2283 42.1933 19.4119 40.0197C17.779 35.5337 18.0058 30.169 20.0468 25.7755C20.455 24.8506 20.7725 24.1106 20.7272 24.1106C20.7725 24.1106 20.3643 24.6194 19.9108 25.2206Z" fill="white"/>
</g>
<path id="SvgjsPath1067" d="M63 43.7549C63 45.8724 64.4796 47.2841 66.3627 47.2841C68.2458 47.2841 69.7254 45.8018 69.7254 43.7549C69.7254 41.6373 68.2458 40.2256 66.3627 40.2256C64.3451 40.155 63 41.7079 63 43.7549ZM63.807 43.7549C63.807 42.1314 64.8831 41.0021 66.2954 41.0021C67.7078 41.0021 68.7838 42.1314 68.7838 43.7549C68.7838 45.3077 67.775 46.5077 66.2954 46.5077C64.9504 46.5077 63.807 45.3077 63.807 43.7549ZM74.0969 40.155C73.6934 40.7197 73.0881 40.508 72.0793 40.9315C70.7342 41.4961 70.5324 43.1902 70.5324 44.5313C70.5324 46.2253 71.4067 47.2841 72.7518 47.2841C74.0296 47.2841 74.9039 46.2253 74.9039 45.0254C74.9039 43.6843 74.1641 42.8373 72.9536 42.8373C72.2138 42.8373 71.5412 43.2608 71.2722 43.896C71.3395 43.049 71.5412 42.1314 72.3483 41.7785C73.2898 41.355 73.9624 41.6373 74.5004 40.8609L74.0969 40.155ZM71.3395 44.6725C71.474 44.1078 72.012 43.5431 72.819 43.5431C73.6933 43.5431 74.1641 44.1784 74.1641 45.0254C74.1641 45.8724 73.6261 46.5077 72.7518 46.5077C71.9448 46.5783 71.3395 45.8018 71.3395 44.6725ZM75.7782 44.9548C75.7782 46.2959 76.6525 47.2841 78.0648 47.2841C79.4099 47.2841 80.3515 46.2959 80.3515 44.9548C80.3515 43.6137 79.4772 42.6255 78.0648 42.6255C76.6525 42.6255 75.7782 43.6137 75.7782 44.9548ZM76.5853 44.9548C76.5853 44.0372 77.1905 43.4019 78.0648 43.4019C78.9391 43.4019 79.5444 44.0372 79.5444 44.9548C79.5444 45.8724 78.9391 46.5077 78.0648 46.5077C77.1905 46.5783 76.5853 45.8724 76.5853 44.9548ZM81.3603 49.1899H82.1001V47.0018C82.3691 47.2135 82.8399 47.2841 83.3106 47.2841C84.6557 47.2841 85.53 46.2253 85.53 44.8842C85.53 43.5431 84.7902 42.6255 83.5797 42.6255C82.9744 42.6255 82.4364 42.9078 82.1673 43.2608V42.7667H81.4275V49.1899H81.3603ZM83.3106 43.4019C84.1849 43.4019 84.723 44.0372 84.723 44.9548C84.723 45.8724 84.1849 46.5783 83.2434 46.5783C82.8399 46.5783 82.5036 46.5077 82.1001 46.2253V44.0372C82.3691 43.6843 82.8399 43.4019 83.3106 43.4019ZM90.305 42.7667H89.4307L88.4219 45.5901C88.3547 45.8018 88.2874 46.0842 88.2202 46.2959C88.1529 46.0842 88.0857 45.8724 87.9512 45.5901L86.6733 42.7667H85.799L87.8167 47.2135L87.7494 47.4253C87.4804 48.1311 87.2114 48.4135 86.8751 48.4135C86.6733 48.4135 86.5388 48.3429 86.4043 48.2723L86.1353 48.9076C86.3371 49.0487 86.6061 49.1899 86.9424 49.1899C87.5476 49.1899 87.9512 48.7664 88.5564 47.2135L90.305 42.7667ZM90.1705 48.2723H90.9103V47.2135H94.3403V48.2723H95.0801V46.4371H94.3403V42.7667H91.4484L91.3811 43.9666C91.3139 45.1666 91.0448 46.0842 90.7086 46.5077H90.1705V48.2723ZM92.0536 44.249L92.1209 43.4725H93.5332V46.4371H91.5156C91.7174 46.1548 91.9864 45.3783 92.0536 44.249ZM95.5508 44.9548C95.5508 46.2959 96.4251 47.2841 97.8375 47.2841C99.1825 47.2841 100.124 46.2959 100.124 44.9548C100.124 43.6137 99.2498 42.6255 97.8375 42.6255C96.4251 42.6255 95.5508 43.6137 95.5508 44.9548ZM96.3579 44.9548C96.3579 44.0372 96.9632 43.4019 97.8375 43.4019C98.7118 43.4019 99.3171 44.0372 99.3171 44.9548C99.3171 45.8724 98.7118 46.5077 97.8375 46.5077C96.9632 46.5783 96.3579 45.8724 96.3579 44.9548ZM101.133 47.2135C101.536 47.2135 102.142 47.2841 102.68 47.2841C104.025 47.2841 104.63 46.8606 104.63 46.0136C104.63 45.4489 104.294 45.096 103.621 44.9548C104.159 44.8842 104.496 44.4607 104.496 43.9666C104.496 43.1902 103.89 42.8373 102.68 42.8373C102.074 42.8373 101.536 42.9078 101.133 42.9078V47.2135ZM102.814 45.1666C103.487 45.1666 103.89 45.3783 103.89 45.8724C103.89 46.3665 103.487 46.5783 102.814 46.5783C102.478 46.5783 102.209 46.5783 101.94 46.5077V45.1666H102.814ZM102.747 43.3314C103.285 43.3314 103.689 43.5431 103.689 43.9666C103.689 44.3901 103.352 44.6725 102.814 44.6725H101.873V43.3314C102.074 43.4019 102.411 43.3314 102.747 43.3314ZM106.042 43.6843C106.379 43.4725 106.715 43.3314 107.186 43.3314C107.993 43.3314 108.127 43.896 108.127 44.7431C107.858 44.5313 107.388 44.4607 107.051 44.4607C106.11 44.4607 105.437 44.9548 105.437 45.8724C105.437 46.7194 105.975 47.2135 106.715 47.2135C107.388 47.2135 107.791 46.9312 108.06 46.5783V47.143H108.8V44.3901C108.8 43.2608 108.396 42.5549 107.186 42.5549C106.648 42.5549 106.177 42.6961 105.773 42.9784L106.042 43.6843ZM107.051 46.5783C106.58 46.5783 106.311 46.2959 106.311 45.8724C106.311 45.3783 106.782 45.1666 107.253 45.1666C107.589 45.1666 107.926 45.2372 108.195 45.4489V46.0136C107.926 46.2253 107.589 46.5783 107.051 46.5783ZM113.239 47.2135H113.978V42.7667H113.239V44.6019H110.885V42.7667H110.145V47.2135H110.885V45.3077H113.239V47.2135ZM116.131 47.2135L118.552 43.896V47.2135H119.291V42.7667H118.552L116.131 46.0842V42.7667H115.391V47.2135H116.131ZM123.999 46.0842C123.73 46.3665 123.259 46.5783 122.721 46.5783C121.914 46.5783 121.309 46.0842 121.242 45.2372H124.537C124.537 45.096 124.604 44.9548 124.604 44.6725C124.604 43.4725 123.73 42.6255 122.654 42.6255C121.242 42.6255 120.502 43.6843 120.502 44.9548C120.502 46.3665 121.376 47.2841 122.789 47.2841C123.327 47.2841 123.999 47.0724 124.403 46.7194L123.999 46.0842ZM122.52 43.4019C123.259 43.4019 123.73 43.8255 123.73 44.6019H121.175C121.242 43.896 121.78 43.4019 122.52 43.4019ZM127.093 48.2723H127.765V47.2135H131.195V48.2723H131.935V46.4371H131.195V42.7667H128.303L128.236 43.9666C128.169 45.1666 127.9 46.0842 127.564 46.5077H127.026V48.2723H127.093ZM128.976 44.249L129.043 43.4725H130.456V46.4371H128.371C128.64 46.1548 128.909 45.3783 128.976 44.249ZM135.634 47.2135H136.374V42.7667H133.415L133.347 44.1784C133.213 46.2253 132.608 46.5783 132.339 46.5077L132.406 47.2841C133.28 47.2841 133.953 46.8606 134.087 44.3195L134.155 43.5431H135.634V47.2135ZM139.602 42.7667C138.19 42.7667 137.719 43.4725 137.719 44.249C137.719 44.9548 138.19 45.4489 138.661 45.5195L137.45 47.2135H138.392L139.4 45.7313H140.207V47.2135H140.947V42.7667H139.602ZM138.526 44.249C138.526 43.8255 138.795 43.4725 139.468 43.4725H140.14V44.9548H139.266C138.93 44.9548 138.526 44.6725 138.526 44.249ZM144.108 44.9548C144.108 46.2959 145.05 47.2841 146.395 47.2841C147.74 47.2841 148.681 46.2959 148.681 44.9548C148.681 43.6137 147.807 42.6255 146.395 42.6255C145.05 42.6255 144.108 43.6137 144.108 44.9548ZM144.915 44.9548C144.915 44.0372 145.52 43.4019 146.395 43.4019C147.269 43.4019 147.874 44.0372 147.874 44.9548C147.874 45.8724 147.269 46.5077 146.395 46.5077C145.52 46.5783 144.915 45.8724 144.915 44.9548ZM152.918 42.7667H152.179V44.8136C151.977 44.9548 151.641 45.096 151.17 45.096C150.564 45.096 150.228 44.7431 150.228 44.0372V42.7667H149.421V44.1078C149.421 45.2372 149.892 45.8018 150.901 45.8018C151.371 45.8018 151.775 45.6607 152.111 45.4489V47.143H152.851V42.7667H152.918ZM155.003 47.2135L157.424 43.896V47.2135H158.164V42.7667H157.424L155.003 46.0842V42.7667H154.263V47.2135H155.003ZM162.872 46.0136C162.603 46.3665 162.132 46.5783 161.661 46.5783C160.854 46.5783 160.115 46.0136 160.115 45.0254C160.115 44.1078 160.787 43.4725 161.594 43.4725C162.065 43.4725 162.468 43.6137 162.805 43.9666L163.141 43.3314C162.737 42.9078 162.132 42.7667 161.46 42.7667C160.249 42.7667 159.307 43.8255 159.307 45.096C159.307 46.5077 160.249 47.4253 161.594 47.4253C162.267 47.4253 162.872 47.143 163.208 46.6489L162.872 46.0136ZM163.612 43.5431H165.159V47.2135H165.898V43.5431H167.445V42.7667H163.612V43.5431ZM172.018 42.7667H171.01L169.194 44.9548L171.077 47.2135H172.086L170.068 44.8842L172.018 42.7667ZM168.252 47.2135H168.992V42.7667H168.252V47.2135ZM173.7 47.2135L176.121 43.896V47.2135H176.861V42.7667H176.121L173.7 46.0842V42.7667H172.96V47.2135H173.7ZM183.653 46.0136C183.384 46.3665 182.914 46.5783 182.443 46.5783C181.636 46.5783 180.896 46.0136 180.896 45.0254C180.896 44.1078 181.568 43.4725 182.376 43.4725C182.846 43.4725 183.25 43.6137 183.586 43.9666L183.922 43.3314C183.519 42.9078 182.914 42.7667 182.241 42.7667C181.03 42.7667 180.089 43.8255 180.089 45.096C180.089 46.5077 181.03 47.4253 182.376 47.4253C183.048 47.4253 183.653 47.143 183.99 46.6489L183.653 46.0136ZM184.393 43.5431H185.94V47.2135H186.68V43.5431H188.227V42.7667H184.393V43.5431ZM188.697 44.9548C188.697 46.2959 189.572 47.2841 190.984 47.2841C192.329 47.2841 193.271 46.2959 193.271 44.9548C193.271 43.6137 192.396 42.6255 190.984 42.6255C189.572 42.6255 188.697 43.6137 188.697 44.9548ZM189.437 44.9548C189.437 44.0372 190.042 43.4019 190.917 43.4019C191.791 43.4019 192.396 44.0372 192.396 44.9548C192.396 45.8724 191.791 46.5077 190.917 46.5077C190.042 46.5077 189.437 45.8724 189.437 44.9548ZM197.44 42.7667H196.701V44.8136C196.499 44.9548 196.163 45.096 195.759 45.096C195.154 45.096 194.817 44.7431 194.817 44.0372V42.7667H194.01V44.1078C194.01 45.2372 194.481 45.8018 195.49 45.8018C195.961 45.8018 196.364 45.6607 196.701 45.4489V47.143H197.44V42.7667ZM201.946 47.2135H202.686V42.7667H201.946V44.6019H199.592V42.7667H198.853V47.2135H199.592V45.3077H201.946V47.2135ZM204.031 47.2135H205.376C206.721 47.2135 207.125 46.4371 207.125 45.6607C207.125 44.8842 206.721 44.1078 205.444 44.1078H204.771V42.7667H204.031V47.2135ZM207.999 47.2135H208.739V42.7667H207.999V47.2135ZM205.309 44.8136C206.049 44.8136 206.318 45.096 206.318 45.6607C206.318 46.1548 206.049 46.4371 205.309 46.4371H204.771V44.8136H205.309ZM213.85 42.7667H212.976L211.833 44.4607L210.689 42.7667H209.748L211.227 44.9548L209.613 47.2135H210.488L211.765 45.3783L212.976 47.2135H213.918L212.303 44.8842L213.85 42.7667ZM216.944 47.2135C217.347 47.2135 217.953 47.2841 218.491 47.2841C219.836 47.2841 220.441 46.8606 220.441 46.0136C220.441 45.4489 220.105 45.096 219.432 44.9548C219.97 44.8842 220.307 44.4607 220.307 43.9666C220.307 43.1902 219.701 42.8373 218.491 42.8373C217.886 42.8373 217.347 42.9078 216.944 42.9078V47.2135ZM218.625 45.1666C219.298 45.1666 219.634 45.3783 219.634 45.8724C219.634 46.3665 219.231 46.5783 218.558 46.5783C218.222 46.5783 217.886 46.5783 217.684 46.5077V45.1666H218.625ZM218.558 43.3314C219.096 43.3314 219.5 43.5431 219.5 43.9666C219.5 44.3901 219.163 44.6725 218.625 44.6725H217.684V43.3314C217.886 43.4019 218.222 43.3314 218.558 43.3314ZM221.315 44.9548C221.315 46.2959 222.19 47.2841 223.602 47.2841C225.014 47.2841 225.889 46.2959 225.889 44.9548C225.889 43.6137 225.014 42.6255 223.602 42.6255C222.19 42.6255 221.315 43.6137 221.315 44.9548ZM222.123 44.9548C222.123 44.0372 222.728 43.4019 223.602 43.4019C224.476 43.4019 225.082 44.0372 225.082 44.9548C225.082 45.8724 224.476 46.5077 223.602 46.5077C222.728 46.5783 222.123 45.8724 222.123 44.9548ZM226.158 48.2723H226.83V47.2135H230.26V48.2723H231V46.4371H230.26V42.7667H227.368L227.301 43.9666C227.234 45.1666 226.965 46.0842 226.629 46.5077H226.09V48.2723H226.158ZM228.108 44.249L228.175 43.4725H229.588V46.4371H227.503C227.705 46.1548 227.974 45.3783 228.108 44.249Z" fill="#1078D7"/>
<path id="SvgjsPath1068" d="M68.1936 36.1399V20.4209L73.3152 15.23H81.0335V36.1399H86.155V10.0391H70.7183L63 17.862V36.1399H68.1936ZM94.9553 30.8758V15.23H107.795V30.8758H94.9553ZM110.392 36.1399L112.917 33.581V12.6711L110.392 10.0391H92.3585L89.8338 12.6711V33.581L92.3585 36.1399H110.392ZM137.154 36.1399L139.678 33.581V28.39H134.557V30.9489H121.717V15.23H134.557V17.862H139.678V12.6711L137.154 10.0391H119.12L116.596 12.6711V33.581L119.12 36.1399H137.154ZM141.915 25.6849H152.158V20.494H141.915V25.6849ZM159.876 30.8758V25.6849H172.716V30.8758H159.876ZM175.313 36.1399L177.837 33.581V23.126L175.313 20.494H159.876V15.23H176.611V10.0391H154.754V36.1399H175.313ZM186.277 36.1399L199.117 18.7393V36.1399H204.238V10.0391H199.117L186.277 27.4396V10.0391H181.155V36.1399H186.277ZM213.111 30.8758V15.23H225.951V30.8758H213.111ZM228.475 36.1399L231 33.581V12.6711L228.475 10.0391H210.442L207.917 12.6711V33.581L210.442 36.1399H228.475Z" fill="#1078D7"/>
</g>
<defs>
<clipPath id="clip0_1_368">
<rect width="240" height="58.2249" fill="white"/>
</clipPath>
</defs>
</svg>
