<svg width="16" height="20" viewBox="0 0 16 20" fill="none" xmlns="http://www.w3.org/2000/svg">
<path fill-rule="evenodd" clip-rule="evenodd" d="M0.53334 8.52586C0.53334 4.19649 3.98428 0.666667 8.2659 0.666667C12.5475 0.666667 15.9985 4.19649 15.9985 8.52586C15.9985 10.6159 15.4028 12.8602 14.3498 14.799C13.2981 16.7355 11.7616 18.4182 9.83937 19.3166C8.84082 19.7834 7.69098 19.7834 6.69243 19.3166C4.77023 18.4182 3.23365 16.7355 2.18197 14.799C1.12899 12.8602 0.53334 10.6159 0.53334 8.52586ZM8.2659 1.99225C4.73847 1.99225 1.85892 4.9063 1.85892 8.52586C1.85892 10.3791 2.39148 12.4073 3.34685 14.1664C4.30351 15.9279 5.65541 17.3687 7.25373 18.1157C7.89655 18.4162 8.63525 18.4162 9.27807 18.1157C10.8764 17.3687 12.2283 15.9279 13.185 14.1664C14.1403 12.4073 14.6729 10.3791 14.6729 8.52586C14.6729 4.9063 11.7933 1.99225 8.2659 1.99225ZM8.2659 6.41085C7.16775 6.41085 6.27753 7.30108 6.27753 8.39923C6.27753 9.49737 7.16775 10.3876 8.2659 10.3876C9.36405 10.3876 10.2543 9.49737 10.2543 8.39923C10.2543 7.30108 9.36405 6.41085 8.2659 6.41085ZM4.95195 8.39923C4.95195 6.56898 6.43565 5.08527 8.2659 5.08527C10.0961 5.08527 11.5799 6.56898 11.5799 8.39923C11.5799 10.2295 10.0961 11.7132 8.2659 11.7132C6.43565 11.7132 4.95195 10.2295 4.95195 8.39923Z" fill="#1078D7"/>
</svg>
