<svg width="20" height="14" viewBox="0 0 20 14" fill="none" xmlns="http://www.w3.org/2000/svg">
<path d="M17.8301 0.5H2.16992C1.25102 0.5 0.5 1.24772 0.5 2.16992V12.1895C0.5 13.112 1.2515 13.8594 2.16992 13.8594H17.8301C18.749 13.8594 19.5 13.1117 19.5 12.1895V2.16992C19.5 1.24749 18.7486 0.5 17.8301 0.5ZM17.5737 1.61328L10.4314 8.77888C10.2137 8.99716 9.78636 8.99731 9.56864 8.77888L2.42635 1.61328H17.5737ZM1.61328 11.9848V2.37458L6.4028 7.17969L1.61328 11.9848ZM2.42635 12.7461L7.18874 7.96819L8.78018 9.56482C9.43234 10.2191 10.5679 10.2188 11.2199 9.56482L12.8113 7.96823L17.5737 12.7461H2.42635ZM18.3867 11.9848L13.5972 7.17969L18.3867 2.37458V11.9848Z" fill="#1078D7"/>
</svg>
