<svg width="20" height="20" viewBox="0 0 20 20" fill="none" xmlns="http://www.w3.org/2000/svg">
<path fill-rule="evenodd" clip-rule="evenodd" d="M3.07103 1.48791C4.26573 0.230108 6.24188 0.465764 7.22944 1.86254L8.45806 3.60024C9.24797 4.71747 9.18125 6.27072 8.23852 7.26324L7.99995 7.51441C7.99929 7.51614 7.99859 7.51803 7.99786 7.52006C7.98526 7.55548 7.95338 7.6683 7.98475 7.88241C8.04979 8.32625 8.39241 9.22818 9.78341 10.6926C11.1788 12.1617 12.0252 12.508 12.4174 12.5716C12.5866 12.5991 12.6751 12.5753 12.7033 12.5653L13.1014 12.1461C13.9528 11.2498 15.2802 11.0733 16.3504 11.6893L18.2119 12.7607C19.8029 13.6765 20.1732 15.9167 18.9017 17.2553L17.5176 18.7125C17.0856 19.1673 16.4966 19.5555 15.7687 19.6273C13.9917 19.8027 9.87503 19.5743 5.55937 15.0307C1.53232 10.7909 0.767297 7.10319 0.670589 5.30144L1.31959 5.2666L0.670589 5.30144C0.622808 4.41122 1.01963 3.64765 1.54172 3.09798L3.07103 1.48791ZM6.0361 2.70628C5.53691 2.00023 4.6401 1.95811 4.13069 2.49442L2.60139 4.10449C2.27851 4.44443 2.1091 4.83406 2.12998 5.22311C2.20894 6.69416 2.84242 10.0481 6.61903 14.0241C10.5789 18.1931 14.227 18.3109 15.6252 18.1729C15.9016 18.1456 16.1861 17.9922 16.4579 17.706L17.842 16.2488C18.4391 15.6202 18.2826 14.4877 17.4828 14.0274L15.6213 12.956C15.1218 12.6684 14.5366 12.7573 14.1611 13.1527L13.7173 13.6199L13.2037 13.132C13.7173 13.6199 13.7167 13.6206 13.716 13.6213L13.7146 13.6227L13.7117 13.6257L13.7055 13.632L13.6916 13.6458C13.6815 13.6555 13.6699 13.6662 13.6568 13.6777C13.6307 13.7006 13.5983 13.7268 13.5593 13.7544C13.4813 13.8098 13.3773 13.8707 13.2458 13.9225C12.9769 14.0286 12.6218 14.0855 12.1831 14.0142C11.3281 13.8754 10.2075 13.2613 8.72375 11.6992C7.23561 10.1324 6.66606 8.9635 6.5387 8.09429C6.47388 7.65187 6.52576 7.29761 6.62095 7.03009C6.66777 6.89853 6.72304 6.79363 6.77402 6.71397C6.79944 6.67425 6.82366 6.64099 6.84508 6.61392C6.85579 6.60039 6.8658 6.5884 6.87492 6.57792L6.8879 6.56332L6.89384 6.55686L6.89667 6.55383L6.89805 6.55237C6.89872 6.55166 6.89939 6.55095 7.41741 7.04297L6.8994 6.55094L7.17885 6.25673C7.61295 5.79971 7.67602 5.02572 7.26471 4.44398L6.0361 2.70628Z" fill="#1078D7"/>
</svg>
